# xmcd CD database file
#
# Track frame offsets:
#	150
#	31655
#	56504
#	90999
#	119155
#	146658
#	171655
#
# Disc length: 2692 seconds
#
# Revision: 0
# Processed by: cddbd v1.5.2PL0 Copyright (c) Steve Scherf et al.
# Submitted via: CDex 1.70beta2
#
DISCID=5e0a8207
DTITLE=Manfred Paul Weinberger Quintett - Springwind
DYEAR=1997
DGENRE=Jazz
TTITLE0=Home
TTITLE1=Greetings to Suomi
TTITLE2=Body language'
TTITLE3=Step by step
TTITLE4=Walz for Eija
TTITLE5=Springwind
TTITLE6=Sommer am Harachsbach
EXTD=YEAR: 1997
EXTT0=
EXTT1=
EXTT2=
EXTT3=
EXTT4=
EXTT5=
EXTT6=
PLAYORDER=
